<svg enable-background="new 0 0 500 500" viewBox="0 0 500 500" xmlns="http://www.w3.org/2000/svg"><path d="m193.8 47.2c-8.5 1.1-16.7 3.5-24.6 6.9-37.7 16.4-59.9 55.7-54.5 96.4 6.7 50.4 53 85.8 103.3 79.2 3.2-.4 6.5-1.1 9.6-1.8l102.4 225.7 11.5-5.2 20.5-9.3-38.3-84.4 58.8-26.7-8.8-19-58.6 26.6-15.6-34.5 43.8-20.7-7.3-16.4-43.9 20.8-32.5-71.6c27.6-19.8 42-53.2 37.5-86.8-6.6-50.4-52.9-85.9-103.3-79.2zm8.7 68.9c12.9-1.7 24.8 7.4 26.5 20.3 1.3 10.1-4 19.9-13.1 24.4-2.3 1.1-4.7 1.8-7.2 2.2-12.9 1.7-24.8-7.4-26.5-20.3-1.4-10.8 4.7-21.1 14.8-25.1.7-.3 1.4-.5 2.1-.7.2 0 .3-.1.5-.1.6-.2 1.2-.3 1.8-.4.3-.2.7-.2 1.1-.3z" fill="#fff" stroke="#fff" stroke-miterlimit="10" stroke-width="10"/><path d="m193.8 47.2c-8.5 1.1-16.7 3.5-24.6 6.9-37.7 16.4-59.9 55.7-54.5 96.4 6.7 50.4 53 85.8 103.3 79.2 3.2-.4 6.5-1.1 9.6-1.8l102.4 225.7 11.5-5.2 20.5-9.3-38.3-84.4 58.8-26.7-8.8-19-58.6 26.6-15.6-34.5 43.8-20.7-7.3-16.4-43.9 20.8-32.5-71.6c27.6-19.8 42-53.2 37.5-86.8-6.6-50.4-52.9-85.9-103.3-79.2zm8.7 68.9c12.9-1.7 24.8 7.4 26.5 20.3 1.3 10.1-4 19.9-13.1 24.4-2.3 1.1-4.7 1.8-7.2 2.2-12.9 1.7-24.8-7.4-26.5-20.3-1.4-10.8 4.7-21.1 14.8-25.1.7-.3 1.4-.5 2.1-.7.2 0 .3-.1.5-.1.6-.2 1.2-.3 1.8-.4.3-.2.7-.2 1.1-.3z" fill="#fac300"/></svg>